<?xml version="1.0" encoding="UTF-8" standalone="no"?>
<!-- Created with Inkscape (http://www.inkscape.org/) -->

<svg
   width="210mm"
   height="297mm"
   viewBox="0 0 210 297"
   version="1.1"
   id="svg294"
   xml:space="preserve"
   inkscape:export-filename="bitmap.svg"
   inkscape:export-xdpi="96"
   inkscape:export-ydpi="96"
   xmlns:inkscape="http://www.inkscape.org/namespaces/inkscape"
   xmlns:sodipodi="http://sodipodi.sourceforge.net/DTD/sodipodi-0.dtd"
   xmlns="http://www.w3.org/2000/svg"
   xmlns:svg="http://www.w3.org/2000/svg"><sodipodi:namedview
     id="namedview296"
     pagecolor="#ffffff"
     bordercolor="#000000"
     borderopacity="0.25"
     inkscape:showpageshadow="2"
     inkscape:pageopacity="0.0"
     inkscape:pagecheckerboard="0"
     inkscape:deskcolor="#d1d1d1"
     inkscape:document-units="mm"
     showgrid="false" /><defs
     id="defs291" /><g
     inkscape:label="Layer 1"
     inkscape:groupmode="layer"
     id="layer1"><g
       id="g1017"
       transform="matrix(7.567535,0,0,7.567535,-623.20391,-981.18089)"
       style="fill:#ffffff"><path
         d="m 31.632439,143.22348 -6.007494,-8.78648 -6.007386,8.78659 -6.960441,-4.90794 v 11.27952 c 0,7.15047 5.817366,12.96783 12.967827,12.96783 7.150564,0 12.967921,-5.81737 12.967921,-12.96783 v -11.27952 z m -6.007494,-2.80978 3.250327,4.75389 -3.250327,2.29178 -3.25022,-2.29178 z m 9.594704,9.18148 c 0,5.29047 -4.304137,9.5946 -9.594704,9.5946 -5.290462,0 -9.594593,-4.30413 -9.594593,-9.59461 v -4.77358 l 9.594593,6.76513 9.594704,-6.76513 z"
         id="path423"
         style="fill:#ffffff;fill-opacity:1;stroke-width:0.112441" /><g
         aria-label="FLOWERS &amp; ART"
         id="text486"
         style="font-weight:bold;font-size:18.3444px;line-height:0;font-family:Inter;-inkscape-font-specification:'Inter Bold';fill:#ffffff;stroke-width:0.264583"
         transform="translate(-16.487739,-11.067145)"><path
           d="m 59.155826,166.23134 v -13.34142 h 8.833475 v 2.32563 h -6.012756 v 3.17901 h 5.426463 v 2.32563 h -5.426463 v 5.51115 z"
           id="path488"
           style="fill:#ffffff" /><path
           d="m 69.884964,166.23134 v -13.34142 h 2.820719 v 11.01579 h 5.71961 v 2.32563 z"
           id="path490"
           style="fill:#ffffff" /><path
           d="m 92.033795,159.56063 q 0,2.18231 -0.827324,3.71319 -0.82081,1.53087 -2.240941,2.33865 -1.413617,0.80127 -3.179009,0.80127 -1.778421,0 -3.192037,-0.80778 -1.413617,-0.80778 -2.234427,-2.33866 -0.820809,-1.53087 -0.820809,-3.70667 0,-2.18231 0.820809,-3.71319 0.82081,-1.53087 2.234427,-2.33214 1.413616,-0.80778 3.192037,-0.80778 1.765392,0 3.179009,0.80778 1.420131,0.80127 2.240941,2.33214 0.827324,1.53088 0.827324,3.71319 z m -2.859805,0 q 0,-1.41362 -0.423434,-2.38426 -0.416919,-0.97064 -1.1791,-1.47224 -0.76218,-0.50161 -1.784935,-0.50161 -1.022755,0 -1.784935,0.50161 -0.762181,0.5016 -1.185614,1.47224 -0.416919,0.97064 -0.416919,2.38426 0,1.41362 0.416919,2.38426 0.423433,0.97064 1.185614,1.47224 0.76218,0.50161 1.784935,0.50161 1.022755,0 1.784935,-0.50161 0.762181,-0.5016 1.1791,-1.47224 0.423434,-0.97064 0.423434,-2.38426 z"
           id="path492"
           style="fill:#ffffff" /><path
           d="m 96.619892,166.23134 -3.817416,-13.34142 h 3.081293 l 2.208369,9.26994 h 0.110744 l 2.436368,-9.26994 h 2.63832 l 2.42986,9.28949 h 0.11726 l 2.20836,-9.28949 h 3.0813 l -3.81742,13.34142 h -2.74906 l -2.5406,-8.72273 h -0.10423 l -2.534087,8.72273 z"
           id="path494"
           style="fill:#ffffff" /><path
           d="m 112.61916,166.23134 v -13.34142 h 8.98982 v 2.32563 h -6.16911 v 3.17901 h 5.70659 v 2.32563 h -5.70659 v 3.18552 h 6.19516 v 2.32563 z"
           id="path496"
           style="fill:#ffffff" /><path
           d="m 123.85644,166.23134 v -13.34142 h 5.26361 q 1.51133,0 2.57968,0.5407 1.07487,0.53417 1.63511,1.51784 0.56675,0.97716 0.56675,2.29957 0,1.32893 -0.57327,2.28654 -0.57326,0.9511 -1.66116,1.45922 -1.08138,0.50812 -2.61877,0.50812 h -3.52427 v -2.267 h 3.06826 q 0.80778,0 1.34196,-0.22148 0.53418,-0.22149 0.79475,-0.66447 0.26709,-0.44298 0.26709,-1.10093 0,-0.66446 -0.26709,-1.12047 -0.26057,-0.456 -0.80126,-0.69052 -0.53418,-0.24103 -1.34848,-0.24103 h -1.90219 v 11.03533 z m 7.20489,-6.07139 3.31581,6.07139 h -3.11387 l -3.24415,-6.07139 z"
           id="path498"
           style="fill:#ffffff" /><path
           d="m 143.13244,156.72688 q -0.0782,-0.78823 -0.67098,-1.2247 -0.59281,-0.43646 -1.60905,-0.43646 -0.69052,0 -1.16607,0.19543 -0.47555,0.18892 -0.72961,0.52767 -0.24754,0.33874 -0.24754,0.76869 -0.013,0.35829 0.14983,0.62538 0.16937,0.26709 0.46252,0.46252 0.29315,0.18892 0.67749,0.33223 0.38435,0.1368 0.82081,0.23452 l 1.19864,0.28663 q 0.87293,0.19543 1.60254,0.52115 0.72961,0.32572 1.26378,0.80127 0.53418,0.47554 0.82733,1.12047 0.29966,0.64492 0.30617,1.47876 -0.007,1.2247 -0.62538,2.12368 -0.61235,0.89247 -1.7719,1.38756 -1.15304,0.48858 -2.78163,0.48858 -1.61557,0 -2.81421,-0.4951 -1.19213,-0.49509 -1.86311,-1.46573 -0.66446,-0.97715 -0.69703,-2.41683 h 2.72951 q 0.0456,0.67098 0.38435,1.12047 0.34526,0.44298 0.91853,0.67098 0.57977,0.22149 1.30938,0.22149 0.71658,0 1.24425,-0.20846 0.53417,-0.20846 0.82732,-0.57978 0.29315,-0.37132 0.29315,-0.85338 0,-0.44949 -0.26709,-0.75566 -0.26058,-0.30618 -0.7687,-0.52115 -0.5016,-0.21498 -1.23121,-0.39086 l -1.4527,-0.36481 q -1.68722,-0.4104 -2.66438,-1.28333 -0.97715,-0.87292 -0.97064,-2.35168 -0.007,-1.21167 0.64492,-2.11717 0.65795,-0.9055 1.80448,-1.41362 1.14653,-0.50812 2.60575,-0.50812 1.48527,0 2.59271,0.50812 1.11396,0.50812 1.73282,1.41362 0.61887,0.9055 0.63841,2.09762 z"
           id="path500"
           style="fill:#ffffff" /><path
           d="m 156.20025,166.42677 q -1.38104,0 -2.38425,-0.49509 -1.00321,-0.49509 -1.54391,-1.34196 -0.53417,-0.85338 -0.53417,-1.90219 0,-0.78173 0.31269,-1.38756 0.31268,-0.60584 0.87292,-1.11396 0.56023,-0.51463 1.30287,-1.02275 l 2.5862,-1.70025 q 0.50161,-0.31921 0.73613,-0.67098 0.23451,-0.35829 0.23451,-0.77521 0,-0.39738 -0.3192,-0.73612 -0.3192,-0.33875 -0.9055,-0.33224 -0.39086,0 -0.67749,0.17589 -0.28663,0.16937 -0.44949,0.44949 -0.15635,0.2736 -0.15635,0.61235 0,0.41692 0.23452,0.84687 0.23452,0.42995 0.62538,0.91201 0.39086,0.47555 0.85338,1.02927 l 6.32545,7.257 h -2.89238 l -5.27663,-5.87596 q -0.52115,-0.5928 -1.0423,-1.23773 -0.51464,-0.65143 -0.8599,-1.38104 -0.34526,-0.73612 -0.34526,-1.59602 0,-0.97064 0.44949,-1.74585 0.45601,-0.77521 1.27682,-1.2247 0.82081,-0.456 1.91522,-0.456 1.06836,0 1.84357,0.43646 0.78172,0.42995 1.19864,1.14653 0.42343,0.71006 0.42343,1.56344 0,0.94459 -0.46903,1.71328 -0.46252,0.76218 -1.30287,1.36802 l -2.72301,1.96082 q -0.55372,0.40389 -0.82081,0.82732 -0.26057,0.41692 -0.26057,0.80127 0,0.47555 0.23451,0.85338 0.23452,0.37784 0.66447,0.59932 0.42995,0.21498 1.00973,0.21498 0.70355,0 1.38755,-0.31921 0.69053,-0.32571 1.25076,-0.91852 0.56675,-0.59932 0.9055,-1.42013 0.33875,-0.82081 0.33875,-1.81751 h 2.29957 q 0,1.2247 -0.26709,2.20837 -0.26709,0.97715 -0.74264,1.70676 -0.47555,0.7231 -1.0879,1.18562 -0.19543,0.12377 -0.37783,0.23451 -0.1824,0.11075 -0.37784,0.23452 -0.74263,0.59932 -1.66116,0.86641 -0.91201,0.26709 -1.80448,0.26709 z"
           id="path502"
           style="fill:#ffffff" /><path
           d="m 171.07906,166.23134 h -3.02266 l 4.60565,-13.34142 h 3.63501 l 4.59914,13.34142 h -3.02266 l -3.34187,-10.29269 h -0.10423 z m -0.18892,-5.24406 h 7.13975 v 2.20185 h -7.13975 z"
           id="path504"
           style="fill:#ffffff" /><path
           d="m 182.49874,166.23134 v -13.34142 h 5.26361 q 1.51133,0 2.57969,0.5407 1.07487,0.53417 1.6351,1.51784 0.56675,0.97716 0.56675,2.29957 0,1.32893 -0.57326,2.28654 -0.57327,0.9511 -1.66117,1.45922 -1.08138,0.50812 -2.61877,0.50812 h -3.52427 v -2.267 h 3.06827 q 0.80778,0 1.34195,-0.22148 0.53418,-0.22149 0.79476,-0.66447 0.26709,-0.44298 0.26709,-1.10093 0,-0.66446 -0.26709,-1.12047 -0.26058,-0.456 -0.80127,-0.69052 -0.53418,-0.24103 -1.34847,-0.24103 h -1.9022 v 11.03533 z m 7.20489,-6.07139 3.31581,6.07139 h -3.11387 l -3.24415,-6.07139 z"
           id="path506"
           style="fill:#ffffff" /><path
           d="m 194.02916,155.21555 v -2.32563 h 10.95716 v 2.32563 h -4.08451 v 11.01579 h -2.78814 v -11.01579 z"
           id="path508"
           style="fill:#ffffff" /></g></g></g></svg>
